<?xml version="1.0" encoding="utf-8"?>
<!-- Generator: Adobe Illustrator 21.1.0, SVG Export Plug-In . SVG Version: 6.00 Build 0)  -->
<svg version="1.1" id="Layer_1" xmlns="http://www.w3.org/2000/svg" xmlns:xlink="http://www.w3.org/1999/xlink" x="0px" y="0px"
	 viewBox="0 0 28 28" style="enable-background:new 0 0 28 28;" xml:space="preserve">
<style type="text/css">
	.st0{fill:#282829;}
	.st1{fill:#F1F2F2;}
</style>
<rect class="st0" width="28" height="28"/>
<g>
	<circle class="st1" cx="8.8" cy="12.3" r="2.1"/>
	<path class="st1" d="M14,2.8c-7.3,0-12,4.4-12,9.8c0.1,2.2,0.6,4.4,1.7,6.3h3c0,0,2.1,0,2.7,6.4h2.2h4.9h2.1
		c0.5-6.4,2.7-6.4,2.7-6.4h3c1-1.9,1.6-4.1,1.7-6.3C26,7.2,21.3,2.8,14,2.8z M8.8,15.3c-1.7,0-3.1-1.4-3.1-3.1s1.4-3.1,3.1-3.1
		s3.1,1.4,3.1,3.1S10.4,15.3,8.8,15.3z M15.6,19c-0.3,0.5-2.7,0.5-3.1,0c-0.4-0.5,1-3.6,1.6-3.6S15.9,18.5,15.6,19z M22.3,11
		c-0.1,0.1-0.2,0.2-0.2,0.4c0.1,0.3,0.2,0.6,0.2,0.9c0,1.7-1.4,3.1-3.1,3.1c-0.3,0-0.6-0.1-0.9-0.2c-0.6,0.4-1.3,0.7-1.8,0.7
		c-0.3,0-0.5-0.1-0.6-0.2c-0.4-0.4-0.3-1.3,0.5-2.4c-0.1-0.3-0.2-0.6-0.2-0.9c0-1.7,1.4-3.1,3-3.1c0.3,0,0.6,0.1,0.9,0.2
		c1.2-0.8,2-0.9,2.4-0.5C22.9,9.3,22.9,10,22.3,11z"/>
	<path class="st1" d="M16.6,14.9c0.1,0,0.4-0.1,0.7-0.3c-0.1-0.1-0.3-0.2-0.4-0.4C16.7,14.5,16.6,14.8,16.6,14.9z"/>
	<path class="st1" d="M21.5,10.3c0.2-0.3,0.2-0.5,0.3-0.7c-0.1,0-0.3,0.1-0.7,0.3C21.3,10.1,21.4,10.2,21.5,10.3z"/>
	<path class="st1" d="M20.9,11.2c-0.4-0.6-1-1-1.7-1c-1.1,0-2,0.9-2,2.1c0,0.7,0.4,1.4,1,1.7c0.4-0.3,0.9-0.8,1.5-1.3
		C20.2,12.2,20.6,11.7,20.9,11.2z"/>
	<path class="st1" d="M19.4,14.3c1-0.1,1.8-0.9,1.8-1.8c-0.3,0.3-0.6,0.6-0.9,1C20.2,13.5,19.9,13.9,19.4,14.3z"/>
</g>
</svg>
